<?xml version="1.0" standalone="no"?>
<!DOCTYPE svg PUBLIC "-//W3C//DTD SVG 20010904//EN"
 "http://www.w3.org/TR/2001/REC-SVG-20010904/DTD/svg10.dtd">
<svg version="1.0" xmlns="http://www.w3.org/2000/svg"
 width="300.000000pt" height="420.000000pt" viewBox="0 0 300.000000 420.000000"
 preserveAspectRatio="xMidYMid meet">
<metadata>
Created by potrace 1.10, written by Peter Selinger 2001-2011
</metadata>
<g transform="translate(0.000000,420.000000) scale(0.100000,-0.100000)"
fill="#000000" stroke="none">
<path d="M1336 3681 c-4 -6 -27 -8 -51 -6 -26 3 -45 1 -45 -5 0 -6 -7 -10 -15
-10 -8 0 -15 -4 -15 -9 0 -4 -20 -19 -45 -32 -47 -25 -49 -27 -39 -53 5 -14 9
-14 35 -1 20 11 27 20 23 33 -5 14 -4 14 4 3 9 -13 13 -13 28 0 10 8 15 9 11
2 -5 -7 0 -9 13 -6 17 5 20 11 15 34 -8 34 0 37 23 8 17 -20 52 -18 52 4 0 6
11 0 25 -13 l25 -23 9 24 c7 17 10 19 10 7 1 -19 21 -20 33 -3 4 6 8 2 8 -7 0
-10 5 -18 11 -18 7 0 9 9 6 21 -5 19 -4 19 11 6 9 -9 29 -19 45 -22 15 -4 30
-11 33 -16 9 -16 22 0 17 21 -3 11 0 20 6 20 6 0 11 -6 11 -13 0 -13 38 -28
105 -42 17 -4 44 -18 62 -31 24 -18 39 -23 59 -18 19 5 25 4 20 -5 -4 -6 -1
-11 8 -11 8 0 16 5 18 11 4 13 33 -11 40 -33 2 -6 10 -8 16 -4 14 8 16 37 3
34 -5 -2 -18 8 -30 21 -12 13 -27 21 -35 18 -9 -4 -18 -2 -21 3 -7 11 -113 60
-130 60 -7 0 -15 7 -19 15 -3 8 -10 15 -16 15 -5 0 -10 -7 -10 -15 0 -19 -10
-19 -37 0 -12 9 -36 13 -55 11 -24 -2 -37 2 -46 15 -7 11 -20 19 -28 19 -17 0
-19 -17 -1 -23 6 -2 10 -7 7 -10 -3 -4 -19 1 -35 9 -18 9 -42 13 -59 10 -16
-3 -35 -1 -42 4 -8 7 -14 8 -18 1z"/>
<path d="M1075 3565 c-20 -15 -20 -15 1 -33 11 -9 18 -24 16 -32 -3 -8 4 -4
15 10 14 16 18 31 13 44 -9 26 -22 29 -45 11z"/>
<path d="M1056 3518 c5 -7 0 -9 -14 -6 -12 4 -22 2 -22 -3 0 -5 -11 -14 -25
-19 -28 -11 -32 -25 -10 -46 8 -8 12 -21 9 -29 -8 -20 20 -20 36 0 10 12 9 16
-3 21 -9 3 -13 12 -10 20 3 8 0 14 -7 14 -6 0 -8 5 -5 11 4 6 12 8 19 6 6 -3
22 3 34 13 18 15 19 19 6 24 -10 4 -13 2 -8 -6z"/>
<path d="M1814 3499 c-5 -8 9 -13 29 -10 4 0 7 -6 7 -14 0 -8 14 -21 30 -30
17 -9 30 -19 30 -24 0 -17 57 -17 79 0 l21 17 -30 7 c-16 4 -34 3 -41 0 -6 -4
-17 2 -25 13 -9 14 -21 18 -35 15 -15 -4 -20 -2 -15 5 6 11 -9 25 -31 28 -7 1
-15 -2 -19 -7z"/>
<path d="M940 3428 c-14 -11 -24 -26 -22 -33 1 -8 -2 -16 -7 -20 -6 -3 -8 -12
-4 -21 4 -11 9 -12 19 -4 7 7 10 18 7 26 -4 10 0 12 11 8 12 -5 15 -2 10 10
-4 10 -1 16 9 16 8 0 14 7 13 15 -3 24 -10 24 -36 3z"/>
<path d="M1974 3384 c-13 -11 -15 -17 -6 -20 6 -3 9 -11 6 -16 -4 -6 -2 -8 3
-5 6 4 23 -5 37 -18 15 -14 37 -25 49 -25 22 0 22 1 -3 20 -14 11 -21 20 -16
20 25 0 -21 30 -48 31 -28 0 -29 1 -8 9 12 5 22 12 22 15 0 10 -16 5 -36 -11z"/>
<path d="M925 3320 c9 -14 -34 -32 -62 -25 -22 5 -24 3 -18 -16 4 -12 3 -19
-2 -16 -5 3 -15 2 -23 -4 -11 -6 -12 -9 -2 -9 7 0 11 -4 7 -9 -3 -5 7 -11 22
-13 29 -4 82 9 84 20 1 15 7 38 14 53 4 10 0 19 -10 23 -9 3 -13 2 -10 -4z
m-2 -50 c6 0 2 -7 -9 -15 -10 -8 -32 -15 -48 -15 -31 0 -31 9 1 15 10 1 17 8
15 15 -2 8 3 10 13 6 9 -3 22 -6 28 -6z"/>
<path d="M1252 3302 c2 -8 17 -21 33 -30 17 -9 34 -21 38 -27 5 -6 7 -5 5 3
-2 8 -17 21 -33 30 -17 9 -34 22 -38 27 -5 6 -7 5 -5 -3z"/>
<path d="M2030 3279 c0 -5 3 -8 8 -6 4 3 13 -1 20 -9 8 -9 9 -14 2 -14 -11 0
29 -42 93 -98 65 -55 85 -126 103 -364 5 -63 4 -67 -13 -61 -14 5 -16 4 -7 -8
16 -21 16 -75 0 -88 -11 -9 -12 -19 -6 -37 6 -15 6 -24 0 -25 -6 -1 -14 -2
-19 -3 -5 0 -13 -5 -18 -10 -5 -5 -3 -6 5 -2 8 5 12 0 12 -16 0 -19 -2 -20
-10 -8 -8 11 -10 6 -9 -20 1 -19 -1 -65 -6 -102 -4 -38 -5 -68 -2 -68 3 0 13
35 23 77 14 64 18 73 25 55 5 -13 12 -22 16 -20 5 2 21 10 37 18 27 14 29 13
52 -13 18 -21 22 -35 18 -64 -2 -21 -9 -42 -14 -47 -6 -6 -10 -25 -10 -43 0
-44 -21 -92 -54 -122 -19 -18 -24 -30 -19 -49 5 -21 3 -24 -11 -19 -9 4 -16 2
-16 -4 0 -6 -4 -8 -9 -5 -4 3 -17 -11 -27 -32 -10 -20 -38 -55 -61 -77 -33
-32 -45 -53 -58 -105 -9 -36 -26 -83 -37 -105 -11 -22 -24 -47 -28 -56 -5 -9
-11 -37 -15 -63 -4 -25 -17 -59 -28 -74 l-21 -27 21 18 c20 17 21 17 41 -18
15 -25 23 -60 27 -122 6 -85 5 -93 -39 -223 -81 -244 -114 -339 -122 -352 -5
-7 -10 -20 -11 -30 -1 -9 -12 -32 -24 -52 -11 -19 -18 -40 -15 -45 4 -5 -9
-17 -29 -27 -30 -14 -47 -34 -29 -34 25 0 71 52 96 109 72 160 150 363 177
462 27 98 42 269 24 276 -7 3 -10 9 -7 14 3 5 -2 12 -10 15 -26 10 -21 119 8
180 13 27 29 67 36 89 7 22 16 50 21 63 5 13 9 32 9 42 0 11 12 26 29 34 41
21 112 96 136 142 11 22 22 41 25 44 6 6 20 36 55 120 34 80 38 189 9 221 -21
23 -64 25 -104 4 -28 -14 -30 -14 -30 1 0 10 6 25 14 33 18 21 39 165 39 266
1 103 -19 265 -32 278 -6 6 -11 19 -11 29 0 10 -5 18 -11 18 -5 0 -7 5 -4 10
3 6 -1 13 -9 16 -9 3 -16 12 -16 18 0 17 -39 50 -77 65 -20 8 -33 21 -35 34
-2 16 -11 22 -35 24 -18 2 -33 -2 -33 -8z"/>
<path d="M1020 3224 c-14 -8 -34 -14 -45 -15 -11 0 -14 -3 -7 -6 19 -7 14 -23
-7 -23 -10 0 -30 -17 -45 -40 -24 -37 -36 -45 -59 -41 -5 1 -6 -3 -2 -9 4 -6
18 -4 38 7 18 9 35 16 39 15 4 -1 5 5 2 13 -4 11 1 15 17 15 24 1 24 1 4 17
-15 11 -15 14 -3 10 9 -3 23 2 32 12 10 11 27 17 44 15 l27 -4 -25 9 c-22 8
-22 9 -5 11 11 1 29 1 40 0 11 -1 18 0 15 2 -30 23 -36 24 -60 12z"/>
<path d="M834 3193 c-9 -7 -20 -10 -25 -8 -4 3 -5 -3 -2 -13 5 -20 -27 -102
-39 -102 -5 0 -8 -9 -8 -20 0 -11 -3 -20 -8 -20 -10 0 -30 -90 -37 -170 -8
-76 17 -287 34 -300 10 -8 41 -110 48 -157 3 -24 10 -43 16 -43 9 0 4 84 -11
185 -3 22 -6 54 -6 72 -1 24 -4 29 -14 21 -22 -18 -23 -2 -2 22 21 24 27 60
10 60 -5 0 -10 -9 -10 -20 0 -11 -6 -20 -14 -20 -10 0 -13 13 -11 49 1 27 6
54 9 60 4 6 3 11 -3 11 -5 0 -7 14 -5 33 3 17 7 43 8 57 4 38 5 40 16 40 7 0
7 -8 -1 -22 l-11 -23 21 23 c12 12 30 22 41 22 12 0 17 5 14 13 -2 7 5 22 16
34 11 12 20 27 20 32 0 5 8 18 18 27 16 17 16 18 -1 11 -11 -4 -16 -3 -12 4 4
6 18 14 32 20 13 5 22 13 18 19 -3 5 -19 3 -40 -7 -25 -12 -32 -20 -26 -31 9
-17 -2 -42 -40 -91 -23 -29 -29 -32 -42 -20 -19 18 -3 71 19 62 13 -5 57 37
48 46 -2 2 -12 -7 -22 -19 -11 -14 -24 -20 -31 -16 -9 6 -9 11 -1 21 8 10 7
14 -2 18 -8 3 -6 6 5 6 10 1 15 5 12 11 -3 6 1 7 9 4 11 -4 16 0 16 14 0 11 7
25 15 32 8 7 15 19 15 26 0 8 5 14 12 14 6 0 8 3 4 7 -4 5 -14 0 -21 -10 -8
-12 -15 -14 -20 -8 -8 14 2 31 18 31 7 0 20 7 29 14 16 12 15 13 -12 12 -16
-1 -37 -6 -46 -13z"/>
<path d="M1057 2665 c-30 -27 -47 -32 -47 -14 0 5 -5 7 -10 4 -6 -4 -7 -11 -4
-17 4 -6 3 -8 -3 -5 -5 3 -22 -8 -37 -24 l-29 -30 25 3 c14 2 36 11 51 21 14
9 54 19 89 22 35 3 73 11 85 17 17 8 26 8 38 -2 11 -9 18 -10 29 -1 10 8 16 8
25 -2 6 -8 9 -17 6 -20 -3 -4 -2 -5 1 -2 4 2 15 0 25 -6 14 -7 19 -6 20 3 0 7
4 4 9 -7 5 -11 9 -14 9 -7 1 21 -30 62 -48 62 -9 0 -23 6 -30 13 -11 10 -12 9
-6 -2 6 -10 4 -12 -6 -6 -7 5 -20 10 -29 12 -8 1 -27 5 -41 8 -17 5 -40 0 -68
-14 -42 -22 -55 -19 -23 5 9 7 13 13 7 13 -5 0 -23 -11 -38 -24z"/>
<path d="M1653 2670 c-14 -6 -23 -18 -23 -32 0 -16 3 -19 11 -11 9 9 15 8 25
-2 8 -8 22 -12 32 -10 9 3 38 10 65 17 33 8 51 8 58 1 6 -6 26 -7 49 -3 22 4
37 3 34 -1 -3 -5 3 -10 13 -11 32 -2 38 -4 61 -16 18 -10 22 -10 20 0 -2 11
-69 50 -88 53 -3 0 -11 4 -17 8 -9 5 -13 3 -13 -7 0 -20 1 -20 -51 4 -47 21
-136 26 -176 10z"/>
<path d="M1050 2469 c-72 -42 -47 -50 30 -10 53 28 60 29 60 13 0 -56 66 -82
96 -37 18 28 36 24 32 -7 -2 -15 3 -22 19 -24 17 -3 20 0 16 17 -9 35 -75 70
-140 75 -52 5 -64 2 -113 -27z"/>
<path d="M1717 2486 c-37 -20 -66 -56 -66 -81 0 -11 3 -14 6 -7 2 6 17 12 31
13 15 0 21 3 15 6 -16 6 -17 25 -1 41 9 9 16 5 30 -18 10 -17 25 -30 34 -30
29 0 54 20 54 45 0 28 3 29 31 15 25 -14 24 -24 -6 -40 -14 -7 -23 -15 -21
-17 2 -2 17 4 34 14 27 15 35 16 52 5 14 -9 26 -10 38 -3 12 8 13 10 3 11 -8
0 -30 12 -50 27 -44 34 -139 43 -184 19z"/>
<path d="M1320 2481 c0 -6 4 -11 8 -11 5 0 6 -22 2 -50 -6 -51 3 -69 14 -27
10 38 7 74 -9 87 -10 9 -15 9 -15 1z"/>
<path d="M660 2455 c-15 -18 -9 -58 27 -178 27 -85 66 -147 95 -147 7 0 -2 14
-19 30 -18 17 -35 43 -38 58 -4 15 -10 45 -15 67 -17 76 -21 127 -10 140 7 8
5 17 -9 29 -16 15 -20 15 -31 1z"/>
<path d="M1574 2462 c-6 -4 -11 -15 -11 -24 0 -10 3 -16 5 -13 3 3 11 0 18 -6
9 -7 14 -5 19 10 10 33 -6 50 -31 33z"/>
<path d="M1070 2434 c0 -8 71 -36 77 -30 3 2 -9 12 -26 20 -31 16 -51 20 -51
10z"/>
<path d="M812 2333 c3 -11 2 -26 -2 -34 -5 -8 -2 -22 6 -33 13 -18 14 -16 14
26 0 26 -5 50 -12 54 -7 5 -9 1 -6 -13z"/>
<path d="M756 2255 c14 -59 25 -77 54 -88 20 -8 31 -20 36 -40 4 -19 9 -26 16
-19 10 10 -14 67 -31 74 -6 1 -26 26 -46 53 -32 44 -35 47 -29 20z"/>
<path d="M2177 2193 c-19 -37 -14 -59 6 -33 7 8 25 22 41 30 16 8 31 20 33 26
5 16 -25 13 -31 -3 -7 -17 -24 -17 -28 1 -2 8 -11 -1 -21 -21z"/>
<path d="M1651 2147 c-1 -10 4 -27 9 -37 17 -32 1 -70 -36 -88 -19 -8 -34 -22
-34 -29 0 -13 42 12 108 65 23 18 23 18 3 40 -10 13 -26 33 -35 45 -13 19 -15
20 -15 4z"/>
<path d="M1362 2074 c-33 -23 -28 -41 12 -39 57 4 69 22 27 44 -13 7 -24 6
-39 -5z"/>
<path d="M1535 2055 c-16 -13 -36 -24 -42 -25 -7 0 -13 -4 -13 -8 0 -17 13
-21 34 -10 11 7 25 11 30 10 14 -5 56 28 56 43 0 23 -31 18 -65 -10z"/>
<path d="M780 2049 c0 -23 22 -48 64 -75 44 -28 56 -47 56 -91 0 -13 5 -23 10
-23 6 0 10 -16 10 -36 0 -21 4 -33 10 -29 6 4 10 -7 10 -27 0 -25 3 -29 10
-18 8 12 10 9 10 -13 0 -16 4 -26 8 -23 5 3 13 -15 20 -39 22 -84 180 -242
290 -291 70 -31 149 -51 190 -49 72 4 82 5 82 13 0 5 -37 9 -81 10 -45 1 -87
7 -95 13 -8 6 -14 9 -14 5 0 -4 -13 0 -29 9 -17 8 -40 17 -53 19 -13 2 -22 10
-20 17 2 10 0 10 -11 0 -8 -6 -17 -8 -19 -4 -1 4 -30 31 -63 58 -33 28 -70 61
-83 75 -34 38 -155 288 -149 311 3 10 2 19 -1 19 -9 0 -27 44 -37 84 -5 23 -8
27 -16 15 -7 -11 -18 -5 -54 33 -25 26 -45 42 -45 37z"/>
<path d="M1194 1833 c-8 -12 -7 -24 3 -45 18 -34 21 -35 33 -3 11 28 40 32
100 15 33 -10 167 -12 320 -6 45 2 70 -2 82 -11 21 -19 37 3 16 23 -11 12 -34
12 -128 5 -65 -5 -121 -6 -131 -1 -9 5 -20 5 -25 0 -11 -11 -191 12 -222 29
-28 15 -35 14 -48 -6z"/>
<path d="M999 1495 c-24 -107 20 -242 134 -410 22 -33 63 -94 90 -135 58 -86
133 -163 206 -211 36 -23 47 -35 39 -41 -12 -7 -3 -12 16 -9 12 3 76 -60 76
-73 0 -6 10 -28 23 -49 l23 -37 74 76 c69 71 60 79 -12 12 -39 -36 -50 -35
-82 6 -37 50 -85 97 -131 131 -80 58 -203 196 -197 221 1 7 -16 31 -38 55 -22
24 -40 48 -40 55 0 6 -7 17 -16 25 -21 17 -103 144 -125 194 -32 72 -41 134
-28 188 6 26 9 50 6 53 -3 3 -11 -20 -18 -51z"/>
<path d="M2106 1412 c-11 -18 3 -72 20 -79 8 -3 14 -9 14 -14 0 -12 60 -107
60 -95 0 18 60 -74 60 -93 0 -11 5 -23 10 -26 6 -3 10 -17 10 -30 0 -13 5 -27
11 -30 6 -4 9 0 7 11 -2 14 4 20 26 22 24 3 28 1 19 -10 -6 -7 -13 -30 -17
-50 -4 -20 -10 -38 -15 -40 -5 -2 -11 -57 -14 -123 -6 -116 -6 -118 9 -75 8
25 17 70 20 100 6 57 28 153 39 170 3 6 12 10 19 10 18 0 66 -53 66 -73 0 -14
4 -16 19 -7 13 7 22 7 26 0 5 -8 63 -48 123 -84 7 -4 12 -1 12 9 0 8 -11 20
-25 25 -14 5 -25 12 -25 16 0 3 7 4 15 0 8 -3 37 -8 63 -11 47 -6 68 -14 245
-98 53 -25 97 -43 97 -39 0 8 -137 75 -177 87 -13 3 -23 10 -23 14 0 10 -83
36 -177 55 -89 18 -132 38 -180 83 -43 40 -72 53 -114 53 -16 0 -29 5 -29 10
0 6 -7 10 -15 10 -9 0 -15 9 -15 24 0 51 -33 106 -63 106 -10 0 -23 24 -37 65
-12 36 -27 71 -34 78 -7 7 -15 19 -18 27 -3 11 -6 11 -12 2z"/>
<path d="M858 1349 c-15 -16 -23 -29 -19 -29 13 0 61 40 61 51 0 15 -14 8 -42
-22z"/>
<path d="M809 1291 c-14 -9 -48 -35 -74 -59 -41 -36 -49 -48 -47 -73 2 -19 -2
-28 -8 -24 -5 3 -10 13 -10 22 0 13 -5 12 -26 -8 l-25 -24 27 -7 c32 -8 58 7
84 49 9 15 39 52 65 81 51 57 55 69 14 43z"/>
<path d="M660 1215 c-7 -8 -37 -22 -67 -31 -30 -9 -52 -18 -49 -21 9 -9 103
27 121 47 10 11 16 20 13 20 -3 0 -11 -7 -18 -15z"/>
<path d="M442 1130 c-35 -16 -82 -43 -105 -60 -23 -16 -90 -47 -148 -69 -59
-21 -119 -46 -135 -56 -35 -20 -15 -14 91 26 130 50 156 62 195 90 43 31 108
65 159 84 20 8 29 14 21 14 -8 1 -43 -12 -78 -29z"/>
<path d="M2420 1104 c0 -12 72 -67 121 -93 99 -51 81 -18 -22 41 -54 31 -99
54 -99 52z"/>
<path d="M583 1090 c-36 -15 -27 -18 23 -9 36 7 54 5 80 -7 36 -17 43 -29 22
-37 -10 -4 -10 -7 0 -18 9 -10 15 -10 23 -2 9 9 8 18 -5 37 -9 15 -13 27 -9
27 16 3 -53 17 -82 17 -16 0 -40 -3 -52 -8z"/>
<path d="M420 1070 c-13 -11 -27 -20 -32 -20 -5 0 -6 -4 -3 -10 3 -5 9 -10 13
-10 9 0 62 46 62 54 0 12 -17 6 -40 -14z"/>
<path d="M592 1039 c-23 -17 -42 -35 -42 -40 0 -15 16 -10 36 12 10 12 33 30
49 40 17 11 23 19 14 19 -8 0 -34 -14 -57 -31z"/>
<path d="M2107 1013 c-7 -12 -20 -109 -14 -103 6 6 26 110 21 110 -1 0 -5 -3
-7 -7z"/>
<path d="M375 941 c-46 -6 -47 -7 -18 -12 18 -3 45 0 60 7 31 14 30 14 -42 5z"/>
<path d="M292 894 c-29 -15 -51 -28 -49 -31 3 -2 33 9 68 26 35 16 57 30 49
30 -8 0 -39 -11 -68 -25z"/>
<path d="M2510 898 c0 -26 11 -48 21 -42 5 3 9 1 9 -5 0 -6 8 -8 18 -4 9 3 14
3 10 -1 -3 -4 18 -21 49 -37 72 -38 80 -37 17 2 -27 17 -66 47 -86 67 -27 25
-38 31 -38 20z"/>
<path d="M167 853 c-16 -8 -26 -17 -24 -20 8 -7 87 19 87 29 0 12 -31 8 -63
-9z"/>
<path d="M1218 807 c-20 -17 -58 -66 -86 -107 -27 -41 -75 -106 -106 -144 -56
-67 -103 -141 -57 -88 23 26 28 27 47 7 9 -8 20 -15 25 -15 18 0 71 59 67 76
-3 16 -7 14 -31 -10 -15 -15 -32 -24 -37 -21 -14 9 -12 25 3 26 17 1 105 112
113 143 5 21 41 56 58 56 3 0 20 -22 38 -49 18 -26 58 -76 88 -111 65 -74 69
-80 86 -139 l14 -46 -4 47 c-4 52 -32 104 -101 186 -25 29 -43 58 -39 63 3 5
-2 22 -12 37 -10 15 -18 30 -17 33 1 4 -5 6 -15 5 -9 0 -18 7 -20 17 -3 15 1
17 22 11 38 -9 49 3 29 31 -10 14 -20 24 -23 25 -3 0 -21 -15 -42 -33z"/>
<path d="M1965 800 c8 -13 -65 -92 -80 -86 -7 2 -30 -12 -51 -32 -23 -21 -47
-35 -60 -33 -11 1 -27 -5 -34 -14 -18 -22 -9 -27 22 -11 15 8 29 12 32 9 8 -9
127 72 164 112 34 35 52 44 52 25 0 -6 11 -15 25 -22 13 -6 32 -27 41 -47 43
-95 59 -121 70 -121 31 0 -59 177 -105 208 -34 22 -88 31 -76 12z"/>
<path d="M1354 734 c3 -9 6 -20 6 -25 0 -5 7 -9 15 -9 12 0 13 4 3 25 -12 27
-34 35 -24 9z"/>
<path d="M2184 582 c30 -77 54 -124 58 -116 7 10 -96 244 -106 244 -2 0 19
-58 48 -128z"/>
<path d="M1659 525 c-8 -9 -25 -17 -37 -20 -22 -4 -141 -97 -155 -122 -5 -8
-7 -34 -5 -58 1 -24 0 -41 -4 -39 -9 6 -16 -26 -20 -88 -2 -25 0 -44 5 -41 4
2 7 12 7 21 0 9 7 35 16 58 13 35 19 41 37 36 22 -5 22 -5 3 16 -38 43 13 114
55 76 29 -26 25 -72 -7 -84 -16 -6 -22 -14 -18 -22 6 -9 9 -9 12 0 2 7 10 12
17 12 16 0 35 30 35 55 0 8 -13 29 -30 45 l-29 28 24 16 c14 9 25 23 25 30 0
7 8 20 17 27 15 12 16 12 8 -1 -5 -8 8 3 28 24 20 22 37 41 37 43 0 6 -6 3
-21 -12z"/>
<path d="M2314 516 c-3 -14 -16 -32 -28 -40 -27 -17 -32 -50 -6 -36 9 5 21 15
27 22 16 21 33 78 23 78 -5 0 -12 -11 -16 -24z"/>
<path d="M276 433 c3 -12 1 -24 -5 -27 -7 -5 -9 -1 -5 11 6 15 4 15 -9 -2 -9
-11 -17 -28 -17 -38 0 -10 -7 -32 -16 -49 -9 -16 -13 -40 -10 -52 3 -13 -2
-33 -12 -47 -22 -32 -42 -85 -50 -134 -4 -22 -10 -39 -14 -37 -18 5 -23 0 -24
-28 -1 -38 18 -39 42 -3 25 38 45 95 30 86 -8 -5 -8 -3 0 8 7 8 14 33 17 56 2
24 10 50 18 59 29 35 75 192 60 207 -6 6 -8 3 -5 -10z"/>
<path d="M1637 353 c-7 -72 -10 -329 -3 -322 4 5 17 389 12 389 -2 0 -6 -30
-9 -67z"/>
<path d="M766 309 c12 -13 34 -43 49 -67 15 -23 30 -40 33 -38 9 10 -48 93
-75 111 l-28 18 21 -24z"/>
<path d="M1026 168 c-8 -12 -24 -48 -36 -78 -12 -30 -26 -59 -31 -64 -12 -13
-12 -26 1 -26 6 0 10 8 10 18 1 16 1 16 14 -1 13 -16 15 -14 21 25 4 24 16 65
26 92 21 55 19 70 -5 34z"/>
<path d="M1070 59 c0 -19 4 -40 9 -47 5 -8 7 2 7 27 -1 49 -16 68 -16 20z"/>
</g>
</svg>
